<mxfile host="app.diagrams.net" modified="2024-05-23T11:55:51.782Z" agent="Mozilla/5.0 (Windows NT 10.0; Win64; x64) AppleWebKit/537.36 (KHTML, like Gecko) Chrome/125.0.0.0 Safari/537.36" etag="xQaVOqlJdOBhg20mhhwF" version="24.4.6" type="device">
  <diagram name="Page-1" id="Sz4vAg-cRAhyk8_1K71Q">
    <mxGraphModel dx="2036" dy="789" grid="1" gridSize="10" guides="1" tooltips="1" connect="1" arrows="1" fold="1" page="1" pageScale="1" pageWidth="850" pageHeight="1100" math="0" shadow="0">
      <root>
        <mxCell id="0" />
        <mxCell id="1" parent="0" />
        <mxCell id="ZaX5e6ZfqKMIzgLzwsww-1" value="Citizens" style="rounded=1;whiteSpace=wrap;html=1;" vertex="1" parent="1">
          <mxGeometry x="80" y="730" width="120" height="60" as="geometry" />
        </mxCell>
        <mxCell id="ZaX5e6ZfqKMIzgLzwsww-2" value="Inquire for vaccine center" style="ellipse;whiteSpace=wrap;html=1;aspect=fixed;" vertex="1" parent="1">
          <mxGeometry x="320" y="460" width="90" height="90" as="geometry" />
        </mxCell>
        <mxCell id="ZaX5e6ZfqKMIzgLzwsww-4" value="Check for your doses info" style="ellipse;whiteSpace=wrap;html=1;aspect=fixed;" vertex="1" parent="1">
          <mxGeometry x="530" y="500" width="80" height="80" as="geometry" />
        </mxCell>
        <mxCell id="ZaX5e6ZfqKMIzgLzwsww-5" value="Check health guidlnes" style="ellipse;whiteSpace=wrap;html=1;aspect=fixed;" vertex="1" parent="1">
          <mxGeometry x="240" y="910" width="80" height="80" as="geometry" />
        </mxCell>
        <mxCell id="ZaX5e6ZfqKMIzgLzwsww-6" value="" style="endArrow=classic;html=1;rounded=0;exitX=0.5;exitY=0;exitDx=0;exitDy=0;entryX=0;entryY=0.5;entryDx=0;entryDy=0;" edge="1" parent="1" target="ZaX5e6ZfqKMIzgLzwsww-2">
          <mxGeometry width="50" height="50" relative="1" as="geometry">
            <mxPoint x="140" y="728" as="sourcePoint" />
            <mxPoint x="370" y="523" as="targetPoint" />
            <Array as="points">
              <mxPoint x="150" y="623" />
            </Array>
          </mxGeometry>
        </mxCell>
        <mxCell id="ZaX5e6ZfqKMIzgLzwsww-8" value="Asks available&amp;nbsp;&lt;div&gt;vaccine center&lt;/div&gt;" style="edgeLabel;html=1;align=center;verticalAlign=middle;resizable=0;points=[];" vertex="1" connectable="0" parent="ZaX5e6ZfqKMIzgLzwsww-6">
          <mxGeometry x="0.0147" y="-2" relative="1" as="geometry">
            <mxPoint as="offset" />
          </mxGeometry>
        </mxCell>
        <mxCell id="ZaX5e6ZfqKMIzgLzwsww-9" value="" style="endArrow=classic;html=1;rounded=0;exitX=0;exitY=1;exitDx=0;exitDy=0;entryX=0.75;entryY=0;entryDx=0;entryDy=0;" edge="1" parent="1" source="ZaX5e6ZfqKMIzgLzwsww-2" target="ZaX5e6ZfqKMIzgLzwsww-1">
          <mxGeometry width="50" height="50" relative="1" as="geometry">
            <mxPoint x="240" y="740" as="sourcePoint" />
            <mxPoint x="290" y="690" as="targetPoint" />
          </mxGeometry>
        </mxCell>
        <mxCell id="ZaX5e6ZfqKMIzgLzwsww-10" value="Gives available vaccine&amp;nbsp;&lt;div&gt;center detail in your area&lt;/div&gt;" style="edgeLabel;html=1;align=center;verticalAlign=middle;resizable=0;points=[];" vertex="1" connectable="0" parent="ZaX5e6ZfqKMIzgLzwsww-9">
          <mxGeometry x="-0.066" relative="1" as="geometry">
            <mxPoint as="offset" />
          </mxGeometry>
        </mxCell>
        <mxCell id="ZaX5e6ZfqKMIzgLzwsww-11" value="Get vaccine dose certificates" style="ellipse;whiteSpace=wrap;html=1;aspect=fixed;" vertex="1" parent="1">
          <mxGeometry x="530" y="830" width="80" height="80" as="geometry" />
        </mxCell>
        <mxCell id="ZaX5e6ZfqKMIzgLzwsww-12" value="" style="endArrow=classic;html=1;rounded=0;entryX=0;entryY=0.5;entryDx=0;entryDy=0;" edge="1" parent="1" target="ZaX5e6ZfqKMIzgLzwsww-4">
          <mxGeometry width="50" height="50" relative="1" as="geometry">
            <mxPoint x="200" y="750" as="sourcePoint" />
            <mxPoint x="250" y="700" as="targetPoint" />
          </mxGeometry>
        </mxCell>
        <mxCell id="ZaX5e6ZfqKMIzgLzwsww-13" value="Asks current vaccine&amp;nbsp;&lt;div&gt;does info&lt;/div&gt;" style="edgeLabel;html=1;align=center;verticalAlign=middle;resizable=0;points=[];" vertex="1" connectable="0" parent="ZaX5e6ZfqKMIzgLzwsww-12">
          <mxGeometry x="0.0221" y="2" relative="1" as="geometry">
            <mxPoint as="offset" />
          </mxGeometry>
        </mxCell>
        <mxCell id="ZaX5e6ZfqKMIzgLzwsww-14" value="" style="endArrow=classic;html=1;rounded=0;exitX=0;exitY=1;exitDx=0;exitDy=0;entryX=1;entryY=0.5;entryDx=0;entryDy=0;" edge="1" parent="1" source="ZaX5e6ZfqKMIzgLzwsww-4" target="ZaX5e6ZfqKMIzgLzwsww-1">
          <mxGeometry width="50" height="50" relative="1" as="geometry">
            <mxPoint x="510" y="760" as="sourcePoint" />
            <mxPoint x="200" y="775" as="targetPoint" />
            <Array as="points">
              <mxPoint x="360" y="700" />
              <mxPoint x="280" y="750" />
            </Array>
          </mxGeometry>
        </mxCell>
        <mxCell id="ZaX5e6ZfqKMIzgLzwsww-15" value="Gives vaccine&amp;nbsp;&lt;div&gt;does information&amp;nbsp;&lt;/div&gt;" style="edgeLabel;html=1;align=center;verticalAlign=middle;resizable=0;points=[];" vertex="1" connectable="0" parent="ZaX5e6ZfqKMIzgLzwsww-14">
          <mxGeometry x="0.0754" y="1" relative="1" as="geometry">
            <mxPoint x="32" y="-11" as="offset" />
          </mxGeometry>
        </mxCell>
        <mxCell id="ZaX5e6ZfqKMIzgLzwsww-16" value="" style="endArrow=classic;html=1;rounded=0;entryX=0.05;entryY=0.225;entryDx=0;entryDy=0;entryPerimeter=0;exitX=0.998;exitY=0.839;exitDx=0;exitDy=0;exitPerimeter=0;" edge="1" parent="1" source="ZaX5e6ZfqKMIzgLzwsww-1" target="ZaX5e6ZfqKMIzgLzwsww-11">
          <mxGeometry width="50" height="50" relative="1" as="geometry">
            <mxPoint x="200" y="790" as="sourcePoint" />
            <mxPoint x="550" y="810" as="targetPoint" />
            <Array as="points">
              <mxPoint x="350" y="780" />
            </Array>
          </mxGeometry>
        </mxCell>
        <mxCell id="ZaX5e6ZfqKMIzgLzwsww-17" value="Requests for&amp;nbsp;&lt;div&gt;vaccine certificate&lt;/div&gt;" style="edgeLabel;html=1;align=center;verticalAlign=middle;resizable=0;points=[];" vertex="1" connectable="0" parent="ZaX5e6ZfqKMIzgLzwsww-16">
          <mxGeometry x="0.0724" y="-4" relative="1" as="geometry">
            <mxPoint x="10" as="offset" />
          </mxGeometry>
        </mxCell>
        <mxCell id="ZaX5e6ZfqKMIzgLzwsww-18" value="" style="endArrow=classic;html=1;rounded=0;exitX=0.013;exitY=0.588;exitDx=0;exitDy=0;exitPerimeter=0;entryX=0.75;entryY=1;entryDx=0;entryDy=0;" edge="1" parent="1" source="ZaX5e6ZfqKMIzgLzwsww-11" target="ZaX5e6ZfqKMIzgLzwsww-1">
          <mxGeometry width="50" height="50" relative="1" as="geometry">
            <mxPoint x="310" y="880" as="sourcePoint" />
            <mxPoint x="360" y="830" as="targetPoint" />
          </mxGeometry>
        </mxCell>
        <mxCell id="ZaX5e6ZfqKMIzgLzwsww-19" value="Gives vaccine certificate" style="edgeLabel;html=1;align=center;verticalAlign=middle;resizable=0;points=[];" vertex="1" connectable="0" parent="ZaX5e6ZfqKMIzgLzwsww-18">
          <mxGeometry x="-0.014" y="-2" relative="1" as="geometry">
            <mxPoint as="offset" />
          </mxGeometry>
        </mxCell>
        <mxCell id="ZaX5e6ZfqKMIzgLzwsww-20" value="" style="endArrow=classic;html=1;rounded=0;exitX=0.5;exitY=0;exitDx=0;exitDy=0;entryX=0.5;entryY=1;entryDx=0;entryDy=0;" edge="1" parent="1" source="ZaX5e6ZfqKMIzgLzwsww-11" target="ZaX5e6ZfqKMIzgLzwsww-4">
          <mxGeometry width="50" height="50" relative="1" as="geometry">
            <mxPoint x="470" y="830" as="sourcePoint" />
            <mxPoint x="520" y="780" as="targetPoint" />
            <Array as="points">
              <mxPoint x="520" y="720" />
            </Array>
          </mxGeometry>
        </mxCell>
        <mxCell id="ZaX5e6ZfqKMIzgLzwsww-21" value="Check if does&amp;nbsp;&lt;div&gt;is given&lt;/div&gt;" style="edgeLabel;html=1;align=center;verticalAlign=middle;resizable=0;points=[];" vertex="1" connectable="0" parent="ZaX5e6ZfqKMIzgLzwsww-20">
          <mxGeometry x="-0.0162" y="3" relative="1" as="geometry">
            <mxPoint x="3" y="3" as="offset" />
          </mxGeometry>
        </mxCell>
        <mxCell id="ZaX5e6ZfqKMIzgLzwsww-22" value="" style="endArrow=classic;html=1;rounded=0;exitX=1;exitY=1;exitDx=0;exitDy=0;entryX=1;entryY=0;entryDx=0;entryDy=0;" edge="1" parent="1" source="ZaX5e6ZfqKMIzgLzwsww-4" target="ZaX5e6ZfqKMIzgLzwsww-11">
          <mxGeometry width="50" height="50" relative="1" as="geometry">
            <mxPoint x="600" y="730" as="sourcePoint" />
            <mxPoint x="650" y="680" as="targetPoint" />
            <Array as="points">
              <mxPoint x="610" y="720" />
            </Array>
          </mxGeometry>
        </mxCell>
        <mxCell id="ZaX5e6ZfqKMIzgLzwsww-23" value="Provide vaccine info&amp;nbsp;&lt;div&gt;for requested user&amp;nbsp;&lt;/div&gt;" style="edgeLabel;html=1;align=center;verticalAlign=middle;resizable=0;points=[];" vertex="1" connectable="0" parent="ZaX5e6ZfqKMIzgLzwsww-22">
          <mxGeometry x="-0.1876" y="-2" relative="1" as="geometry">
            <mxPoint as="offset" />
          </mxGeometry>
        </mxCell>
        <mxCell id="ZaX5e6ZfqKMIzgLzwsww-24" value="" style="endArrow=classic;html=1;rounded=0;exitX=0.5;exitY=1;exitDx=0;exitDy=0;entryX=0.5;entryY=0;entryDx=0;entryDy=0;" edge="1" parent="1" source="ZaX5e6ZfqKMIzgLzwsww-1" target="ZaX5e6ZfqKMIzgLzwsww-5">
          <mxGeometry width="50" height="50" relative="1" as="geometry">
            <mxPoint x="150" y="890" as="sourcePoint" />
            <mxPoint x="200" y="840" as="targetPoint" />
          </mxGeometry>
        </mxCell>
        <mxCell id="ZaX5e6ZfqKMIzgLzwsww-25" value="Check Corona&lt;div&gt;&amp;nbsp;guidelines&lt;/div&gt;" style="edgeLabel;html=1;align=center;verticalAlign=middle;resizable=0;points=[];" vertex="1" connectable="0" parent="ZaX5e6ZfqKMIzgLzwsww-24">
          <mxGeometry x="-0.0693" y="-1" relative="1" as="geometry">
            <mxPoint as="offset" />
          </mxGeometry>
        </mxCell>
        <mxCell id="ZaX5e6ZfqKMIzgLzwsww-26" value="" style="endArrow=classic;html=1;rounded=0;exitX=0;exitY=0.5;exitDx=0;exitDy=0;entryX=0.25;entryY=1;entryDx=0;entryDy=0;" edge="1" parent="1" source="ZaX5e6ZfqKMIzgLzwsww-5" target="ZaX5e6ZfqKMIzgLzwsww-1">
          <mxGeometry width="50" height="50" relative="1" as="geometry">
            <mxPoint x="120" y="970" as="sourcePoint" />
            <mxPoint x="170" y="920" as="targetPoint" />
            <Array as="points">
              <mxPoint x="120" y="890" />
            </Array>
          </mxGeometry>
        </mxCell>
        <mxCell id="ZaX5e6ZfqKMIzgLzwsww-27" value="Gives guidelines&amp;nbsp;&lt;div&gt;provided&amp;nbsp;&lt;div&gt;by government&lt;/div&gt;&lt;/div&gt;" style="edgeLabel;html=1;align=center;verticalAlign=middle;resizable=0;points=[];" vertex="1" connectable="0" parent="ZaX5e6ZfqKMIzgLzwsww-26">
          <mxGeometry x="-0.1581" y="-2" relative="1" as="geometry">
            <mxPoint as="offset" />
          </mxGeometry>
        </mxCell>
        <mxCell id="ZaX5e6ZfqKMIzgLzwsww-28" value="Vaccine center database" style="shape=partialRectangle;whiteSpace=wrap;html=1;left=0;right=0;fillColor=none;" vertex="1" parent="1">
          <mxGeometry x="420" y="370" width="120" height="60" as="geometry" />
        </mxCell>
        <mxCell id="ZaX5e6ZfqKMIzgLzwsww-29" value="" style="endArrow=classic;startArrow=classic;html=1;rounded=0;entryX=0.25;entryY=1;entryDx=0;entryDy=0;" edge="1" parent="1" source="ZaX5e6ZfqKMIzgLzwsww-2" target="ZaX5e6ZfqKMIzgLzwsww-28">
          <mxGeometry width="50" height="50" relative="1" as="geometry">
            <mxPoint x="380" y="420" as="sourcePoint" />
            <mxPoint x="430" y="370" as="targetPoint" />
          </mxGeometry>
        </mxCell>
        <mxCell id="ZaX5e6ZfqKMIzgLzwsww-30" value="User vaccine database" style="shape=partialRectangle;whiteSpace=wrap;html=1;left=0;right=0;fillColor=none;" vertex="1" parent="1">
          <mxGeometry x="710" y="630" width="120" height="60" as="geometry" />
        </mxCell>
        <mxCell id="ZaX5e6ZfqKMIzgLzwsww-31" value="" style="endArrow=classic;startArrow=classic;html=1;rounded=0;entryX=0.25;entryY=0;entryDx=0;entryDy=0;exitX=1;exitY=0.5;exitDx=0;exitDy=0;" edge="1" parent="1" source="ZaX5e6ZfqKMIzgLzwsww-4" target="ZaX5e6ZfqKMIzgLzwsww-30">
          <mxGeometry width="50" height="50" relative="1" as="geometry">
            <mxPoint x="640" y="620" as="sourcePoint" />
            <mxPoint x="690" y="570" as="targetPoint" />
          </mxGeometry>
        </mxCell>
        <mxCell id="ZaX5e6ZfqKMIzgLzwsww-32" value="" style="endArrow=classic;startArrow=classic;html=1;rounded=0;exitX=1.015;exitY=0.392;exitDx=0;exitDy=0;exitPerimeter=0;entryX=0.25;entryY=1;entryDx=0;entryDy=0;" edge="1" parent="1" source="ZaX5e6ZfqKMIzgLzwsww-11" target="ZaX5e6ZfqKMIzgLzwsww-30">
          <mxGeometry width="50" height="50" relative="1" as="geometry">
            <mxPoint x="680" y="820" as="sourcePoint" />
            <mxPoint x="730" y="770" as="targetPoint" />
          </mxGeometry>
        </mxCell>
        <mxCell id="ZaX5e6ZfqKMIzgLzwsww-33" value="Government guidelines database" style="shape=partialRectangle;whiteSpace=wrap;html=1;left=0;right=0;fillColor=none;" vertex="1" parent="1">
          <mxGeometry x="365" y="1010" width="120" height="60" as="geometry" />
        </mxCell>
        <mxCell id="ZaX5e6ZfqKMIzgLzwsww-34" value="" style="endArrow=classic;startArrow=classic;html=1;rounded=0;entryX=0.25;entryY=0;entryDx=0;entryDy=0;exitX=1.015;exitY=0.569;exitDx=0;exitDy=0;exitPerimeter=0;" edge="1" parent="1" source="ZaX5e6ZfqKMIzgLzwsww-5" target="ZaX5e6ZfqKMIzgLzwsww-33">
          <mxGeometry width="50" height="50" relative="1" as="geometry">
            <mxPoint x="240" y="1070" as="sourcePoint" />
            <mxPoint x="290" y="1020" as="targetPoint" />
          </mxGeometry>
        </mxCell>
      </root>
    </mxGraphModel>
  </diagram>
</mxfile>
